# xmcd CD database file
#
# Track frame offsets:
#	150
#	23727
#	39747
#
# Disc length: 785 seconds
#
# Revision: 0
# Processed by: cddbd v1.5PL3 Copyright (c) Steve Scherf et al.
# Submitted via: CDex 1.51
#
DISCID=1c030f03
DTITLE=美結 - 宝箱の中の老人
DYEAR=2000
DGENRE=JPop
TTITLE0=宝箱の中の老人
TTITLE1=シンメトリック症候群
TTITLE2=迷宮の遊戯
EXTD=YEAR: 2000
EXTT0=
EXTT1=
EXTT2=
PLAYORDER=
